<svg version="1.1" xmlns="http://www.w3.org/2000/svg" xmlns:xlink="http://www.w3.org/1999/xlink" width="74.5" height="80.96405" viewBox="0,0,74.5,80.96405"><g transform="translate(-202.75,-135.78595)"><g data-paper-data="{&quot;isPaintingLayer&quot;:true}" fill-rule="nonzero" stroke="#000000" stroke-linejoin="miter" stroke-miterlimit="10" stroke-dasharray="" stroke-dashoffset="0" style="mix-blend-mode: normal"><path d="M276.5,180c0,19.88225 -16.34161,36 -36.5,36c-20.15839,0 -36.5,-16.11775 -36.5,-36c0,-19.88225 16.34161,-36 36.5,-36c20.15839,0 36.5,16.11775 36.5,36z" fill="#f5d187" stroke-width="1.5" stroke-linecap="butt"/><path d="M267.125,157.75l-3.75,5.5l-6.5,-6.5l-6.25,4.75l-4,-5.25l-6.5,5l-5.75,-6.5l-7.75,4.25l-9,-6.75" fill="none" stroke-width="1.5" stroke-linecap="round"/><path d="M222.625,154.25c0,0 -3.5,-1.03144 -3.5,-2c0,-0.61257 3.5,-3.25 3.5,-3.25c0,0 10.93858,-4 16.25,-4c6.01701,0 18,4 18,4c0,0 9.29658,5.31387 10.16679,7.31913c1.02196,2.35495 -4.41679,5.93087 -4.41679,5.93087l-5.58277,-5.75701l-5.74812,2.77088c0,0 -1.14357,0.62044 -1.7153,0.15021c-0.96887,-0.79687 -2.44937,-3.35412 -3.39316,-3.26581c-1.8188,0.17017 -5.78468,3.56462 -5.78468,3.56462c0,0 -3.95448,-5.07119 -5.27284,-4.93298c-0.97316,0.10203 -2.06769,0.60726 -3.15419,1.18698c-1.24444,0.66398 -2.47835,1.42567 -3.50731,1.79111c-1.51919,0.53955 -2.59163,-0.258 -2.59163,-0.258z" fill="#ffa900" stroke-width="1.5" stroke-linecap="butt"/><path d="M254.19553,136.56794c0,0 -1.0561,6.42414 -5.72044,10.52876c-4.66434,4.10461 -9.66559,6.04563 -11.17062,4.33537c-1.50502,-1.71026 1.0561,-6.42414 5.72044,-10.52876c4.66434,-4.10461 11.17062,-4.33537 11.17062,-4.33537z" fill="#ab7815" stroke-width="1.5" stroke-linecap="butt"/><path d="M223.625,172.5c0,3.72792 -1.06332,6.75 -2.375,6.75c-1.31168,0 -2.375,-3.02208 -2.375,-6.75c0,-3.72792 1.06332,-6.75 2.375,-6.75c1.31168,0 2.375,3.02208 2.375,6.75z" fill="#000000" stroke-width="1.5" stroke-linecap="butt"/><path d="M255.125,173.25c0,3.72792 -1.06332,6.75 -2.375,6.75c-1.31168,0 -2.375,-3.02208 -2.375,-6.75c0,-3.72792 1.06332,-6.75 2.375,-6.75c1.31168,0 2.375,3.02208 2.375,6.75z" fill="#000000" stroke-width="1.5" stroke-linecap="butt"/><path d="M219.625,170.5l-3.75,-3.75" fill="none" stroke-width="1.5" stroke-linecap="round"/><path d="M253.625,170.5l3.5,-3.25" fill="none" stroke-width="1.5" stroke-linecap="round"/><path d="M246.30316,191.51471c0,0 0.69933,12.10118 -9.86181,12.21053c-10.68147,0.11059 -8.87563,-11.35526 -8.87563,-11.35526" fill="none" stroke-width="2" stroke-linecap="round"/></g></g></svg>